<svg width="20" height="20" viewBox="0 0 20 20" fill="none" xmlns="http://www.w3.org/2000/svg">
<path fill-rule="evenodd" clip-rule="evenodd" d="M1.68555 9.36702C2.00515 5.05657 5.60367 1.65869 9.9958 1.65869C9.30341 1.65869 8.68694 1.9622 8.1798 2.4263C7.6752 2.88807 7.24878 3.53267 6.90388 4.29465C6.55695 5.06113 6.28747 5.95759 6.10507 6.93045C5.95886 7.71031 5.86988 8.53245 5.84022 9.36702L1.68555 9.36702ZM1.68555 10.617L5.84022 10.617C5.86988 11.4516 5.95886 12.2737 6.10507 13.0536C6.28747 14.0265 6.55695 14.9229 6.90388 15.6894C7.24878 16.4514 7.6752 17.096 8.1798 17.5578C8.68694 18.0219 9.30341 18.3254 9.9958 18.3254C5.60367 18.3254 2.00515 14.9275 1.68555 10.617Z" fill="white"/>
<path d="M9.9958 2.82148C9.76662 2.82148 9.47056 2.91899 9.1263 3.23404C8.77949 3.55141 8.4323 4.04881 8.12556 4.7265C7.82085 5.3997 7.57343 6.21236 7.40316 7.12052C7.26907 7.83571 7.18589 8.59385 7.1567 9.36702L12.8349 9.36702C12.8057 8.59385 12.7225 7.83571 12.5884 7.12052C12.4182 6.21236 12.1707 5.3997 11.866 4.7265C11.5593 4.04881 11.2121 3.55141 10.8653 3.23404C10.521 2.91899 10.225 2.82148 9.9958 2.82148Z" fill="white"/>
<path d="M7.40316 12.8635C7.57343 13.7717 7.82085 14.5844 8.12556 15.2575C8.4323 15.9352 8.77949 16.4326 9.1263 16.75C9.47056 17.0651 9.76662 17.1626 9.9958 17.1626C10.225 17.1626 10.521 17.0651 10.8653 16.75C11.2121 16.4326 11.5593 15.9352 11.866 15.2575C12.1707 14.5844 12.4182 13.7717 12.5884 12.8635C12.7225 12.1483 12.8057 11.3902 12.8349 10.617L7.1567 10.617C7.18589 11.3902 7.26907 12.1483 7.40316 12.8635Z" fill="white"/>
<path d="M9.9958 1.65869C10.6882 1.65869 11.3047 1.9622 11.8118 2.4263C12.3164 2.88807 12.7428 3.53267 13.0877 4.29465C13.4346 5.06113 13.7041 5.95759 13.8865 6.93045C14.0327 7.71031 14.1217 8.53245 14.1514 9.36702L18.306 9.36702C17.9864 5.05657 14.3879 1.65869 9.9958 1.65869Z" fill="white"/>
<path d="M13.8865 13.0536C13.7041 14.0265 13.4346 14.9229 13.0877 15.6894C12.7428 16.4514 12.3164 17.096 11.8118 17.5578C11.3047 18.0219 10.6882 18.3254 9.9958 18.3254C14.3879 18.3254 17.9864 14.9275 18.306 10.617L14.1514 10.617C14.1217 11.4516 14.0327 12.2737 13.8865 13.0536Z" fill="white"/>
</svg>
