<svg width="119" height="24" viewBox="0 0 119 24" fill="none" xmlns="http://www.w3.org/2000/svg">
<path d="M48.8628 4.56543H51.02V7.04184H51.0739C52.0267 5.3909 53.5367 4.56543 55.604 4.56543C56.5208 4.56543 57.2848 4.68837 57.896 4.93426C58.5072 5.18014 59.0015 5.52263 59.379 5.96171C59.7565 6.40079 60.0172 6.92768 60.161 7.54239C60.3228 8.13954 60.4037 8.80695 60.4037 9.5446V18.5018H58.1117V9.28115C58.1117 8.43812 57.86 7.77072 57.3567 7.27895C56.8533 6.78718 56.1613 6.54129 55.2804 6.54129C54.5793 6.54129 53.9681 6.64667 53.4468 6.85743C52.9435 7.06819 52.521 7.36676 52.1795 7.75315C51.8379 8.13954 51.5772 8.59619 51.3975 9.12308C51.2357 9.63242 51.1548 10.1944 51.1548 10.8092V18.5018H48.8628V4.56543Z" fill="white"/>
<path d="M36.2862 11.5698C36.2862 12.3797 36.3939 13.1034 36.6094 13.741C36.8428 14.3613 37.157 14.8868 37.552 15.3176C37.947 15.7311 38.4049 16.0499 38.9255 16.2739C39.4642 16.4979 40.0298 16.6099 40.6223 16.6099C41.2148 16.6099 41.7714 16.4979 42.2921 16.2739C42.8307 16.0499 43.2975 15.7311 43.6925 15.3176C44.0875 14.8868 44.3928 14.3613 44.6082 13.741C44.8416 13.1034 44.9584 12.3797 44.9584 11.5698C44.9584 10.76 44.8416 10.0449 44.6082 9.42459C44.3928 8.78704 44.0875 8.25287 43.6925 7.8221C43.2975 7.39132 42.8307 7.06393 42.2921 6.83993C41.7714 6.61592 41.2148 6.50392 40.6223 6.50392C40.0298 6.50392 39.4642 6.61592 38.9255 6.83993C38.4049 7.06393 37.947 7.39132 37.552 7.8221C37.157 8.25287 36.8428 8.78704 36.6094 9.42459C36.3939 10.0449 36.2862 10.76 36.2862 11.5698ZM33.8623 11.5698C33.8623 10.5877 34.0059 9.67444 34.2932 8.83011C34.5805 7.96856 35.0114 7.22763 35.586 6.60731C36.1605 5.96976 36.8697 5.47006 37.7136 5.10821C38.5575 4.74636 39.527 4.56543 40.6223 4.56543C41.7355 4.56543 42.705 4.74636 43.5309 5.10821C44.3748 5.47006 45.084 5.96976 45.6586 6.60731C46.2331 7.22763 46.6641 7.96856 46.9513 8.83011C47.2386 9.67444 47.3822 10.5877 47.3822 11.5698C47.3822 12.552 47.2386 13.4653 46.9513 14.3096C46.6641 15.1539 46.2331 15.8948 45.6586 16.5324C45.084 17.1527 44.3748 17.6438 43.5309 18.0056C42.705 18.3503 41.7355 18.5226 40.6223 18.5226C39.527 18.5226 38.5575 18.3503 37.7136 18.0056C36.8697 17.6438 36.1605 17.1527 35.586 16.5324C35.0114 15.8948 34.5805 15.1539 34.2932 14.3096C34.0059 13.4653 33.8623 12.552 33.8623 11.5698Z" fill="white"/>
<path d="M25.8555 0.356445H28.147V18.5028H25.8555V0.356445Z" fill="white"/>
<path d="M21.8555 0.356445H24.147V18.5028H21.8555V0.356445Z" fill="white"/>
<path d="M20.1475 2.76053H17.8564V0.356445H20.1475V2.76053ZM17.8564 4.63381H20.1475V18.5063H17.8564V4.63381Z" fill="white"/>
<path d="M32.1421 2.76053H29.8511V0.356445H32.1421V2.76053ZM29.8511 4.63381H32.1421V18.5063H29.8511V4.63381Z" fill="white"/>
<path d="M9.22998 4.6098H11.3862V7.85655H11.4402C11.9972 6.72958 12.68 5.89777 13.4886 5.36111C14.2972 4.82446 15.3214 4.57402 16.5613 4.6098V7.02474C15.6449 7.02474 14.8632 7.14996 14.2163 7.4004C13.5695 7.65084 13.0484 8.01755 12.6531 8.50054C12.2577 8.98352 11.9702 9.57384 11.7905 10.2715C11.6109 10.9513 11.521 11.7383 11.521 12.6328V18.4932H9.22998V4.6098Z" fill="white"/>
<path d="M4.99544 4.50339H7.77164V6.51584H4.99544V15.2492C4.99544 15.5175 5.01341 15.7322 5.04935 15.8931C5.10326 16.0541 5.1931 16.1794 5.31888 16.2688C5.44467 16.3582 5.61537 16.4209 5.831 16.4566C6.06459 16.4745 6.36108 16.4835 6.72046 16.4835H7.77164V18.4959H6.01967C5.4267 18.4959 4.91458 18.4601 4.48333 18.3886C4.07005 18.2991 3.72864 18.1471 3.45911 17.9324C3.20754 17.7178 3.01887 17.4137 2.89309 17.0201C2.7673 16.6266 2.70441 16.1078 2.70441 15.4638V6.51584H0.33252V4.50339H2.70441V0.356445H4.99544V4.50339Z" fill="white"/>
<path fill-rule="evenodd" clip-rule="evenodd" d="M73.5848 8.10142V0.512695H74.9046V18.3181H73.7195V15.7385H73.3491L73.3011 15.8558C73.1313 16.2703 72.8758 16.6539 72.5318 17.0065L72.5301 17.0082L72.5285 17.01C72.2006 17.3638 71.8207 17.6677 71.3878 17.9216C70.9531 18.159 70.4827 18.3462 69.9762 18.4826L69.9745 18.483C69.4873 18.619 69.0012 18.6866 68.5159 18.6866C67.4785 18.6866 66.5821 18.5066 65.8217 18.1527C65.0738 17.7787 64.4496 17.2788 63.9467 16.6526C63.4415 16.006 63.0659 15.2648 62.8207 14.427C62.5743 13.5675 62.4507 12.6639 62.4507 11.7154C62.4507 10.7667 62.5743 9.87206 62.8206 9.03059L62.8208 9.02962C63.0662 8.17386 63.4419 7.43346 63.9459 6.8055L63.9475 6.80358C64.4509 6.15952 65.0754 5.65102 65.8232 5.27733C66.5832 4.90651 67.4789 4.71787 68.5159 4.71787C69.022 4.71787 69.5096 4.7775 69.979 4.89632L69.9805 4.8967C70.4652 5.01501 70.9143 5.20063 71.3286 5.45343L71.331 5.45492L71.3335 5.45634C71.7468 5.69172 72.3786 6.34612 72.6881 6.69867C72.9827 7.08658 73.5848 8.10142 73.5848 8.10142ZM68.5159 5.73609C67.68 5.73609 66.9529 5.9175 66.343 6.2892C65.7447 6.63639 65.2484 7.09374 64.8555 7.65999L64.8543 7.66174L64.8531 7.66352C64.4809 8.22684 64.2034 8.86948 64.0191 9.58941L64.0186 9.5911L64.0182 9.59279C63.8531 10.2913 63.7706 10.9989 63.7706 11.7154C63.7706 12.4319 63.8531 13.1479 64.018 13.8633L64.0186 13.8661L64.0193 13.8688C64.2038 14.5714 64.4814 15.2047 64.8531 15.7673L64.8543 15.7691L64.8555 15.7708C65.2481 16.3368 65.7439 16.8024 66.3411 17.1668L66.343 17.1679L66.3448 17.169C66.9545 17.5224 67.6809 17.6947 68.5159 17.6947C69.4374 17.6947 70.2255 17.5238 70.8714 17.1714L70.873 17.1705C71.5244 16.8071 72.0496 16.3414 72.4447 15.7725C72.8545 15.2083 73.1426 14.5721 73.3097 13.866C73.4929 13.1499 73.5848 12.4329 73.5848 11.7154C73.5848 10.9982 73.493 10.29 73.3097 9.59104C73.1428 8.86814 72.8549 8.22309 72.4447 7.65831C72.0496 7.08935 71.524 6.63213 70.8722 6.28614C70.2261 5.91581 69.4375 5.73609 68.5159 5.73609Z" fill="white"/>
<path d="M76.8753 2.60387V0.523184H78.1948V2.60387H76.8753Z" fill="white"/>
<path d="M93.8552 2.60387V0.523184H95.1747V2.60387H93.8552Z" fill="white"/>
<path d="M98.8835 4.76161V0.533488H100.203V4.76161H103.033V5.80689H100.203V15.4575C100.203 16.0249 100.276 16.4929 100.435 16.8488L100.438 16.8548L100.441 16.8605C100.651 17.2567 101.13 17.4336 101.756 17.4702L101.761 17.4706H101.767C102.189 17.4706 102.611 17.4505 103.033 17.4105V18.437C102.84 18.4404 102.647 18.4489 102.454 18.4627C102.207 18.4802 101.96 18.489 101.713 18.489C100.595 18.489 99.8683 18.275 99.4735 17.8988C99.0823 17.5081 98.8657 16.7627 98.8834 15.5945L98.8835 15.5931V5.80689H96.4577V4.76161H98.8835Z" fill="white"/>
<path d="M117.68 18.5V0.543793H119V18.5H117.68Z" fill="white"/>
<path fill-rule="evenodd" clip-rule="evenodd" d="M83.3024 5.17372C84.064 4.81184 84.9339 4.62861 85.9162 4.62861C86.4197 4.62861 86.8852 4.69773 87.314 4.83431L87.316 4.83494C87.7648 4.97242 88.1685 5.1694 88.5285 5.42533L88.5309 5.42709L88.5335 5.42878C88.8962 5.66951 89.2152 5.9528 89.491 6.27885L89.4928 6.28101L89.4947 6.28312C89.788 6.6095 90.0529 6.99029 90.2169 7.30095C90.381 7.61162 90.5797 8.02573 90.5797 8.02573V4.82372H91.8992V17.5614C91.8992 18.5669 91.784 19.4705 91.556 20.2739L91.5554 20.2757L91.555 20.2776C91.3455 21.0769 91.0069 21.7484 90.5423 22.2966C90.0801 22.8419 89.4698 23.2629 88.705 23.5571L88.7036 23.5576C87.9596 23.8505 87.0325 24.0006 85.9162 24.0006C85.2301 24.0006 84.5623 23.9218 83.9125 23.7645C83.2667 23.6081 82.6845 23.3656 82.1644 23.0378C81.6662 22.7127 81.2446 22.2933 80.8991 21.7776C80.6096 21.3375 80.4269 20.8105 80.3559 20.1916H81.6897C81.7894 20.6647 81.9599 21.0704 82.206 21.4029L82.2069 21.4042C82.4901 21.78 82.8225 22.0832 83.2043 22.3113L83.2061 22.3124L83.2078 22.3133C83.6027 22.538 84.0342 22.6967 84.5009 22.79C84.9636 22.9002 85.4355 22.9553 85.9162 22.9553C87.5318 22.9553 88.7393 22.4974 89.4885 21.5412C90.2251 20.601 90.5797 19.2654 90.5797 17.5614V15.4946C90.0119 16.3352 89.2273 17.1019 88.484 17.601C87.7646 18.0955 86.9067 18.3389 85.9162 18.3389C84.8225 18.3389 83.8989 18.1634 83.139 17.8199C82.3738 17.456 81.7418 16.964 81.2399 16.3443C80.7542 15.7221 80.3967 14.9944 80.1693 14.1585C79.9403 13.2991 79.8253 12.3854 79.8253 11.4167C79.8253 10.487 79.9574 9.61244 80.2203 8.79187C80.5012 7.95337 80.8946 7.23253 81.3989 6.6266C81.9199 6.00439 82.5531 5.52065 83.3007 5.17452L83.3024 5.17372ZM85.9162 5.67389C85.0816 5.67389 84.3555 5.84929 83.7461 6.20899C83.1473 6.54467 82.6504 6.9928 82.2572 7.55205C81.8656 8.10902 81.5781 8.74735 81.3934 9.46476L81.3929 9.46644L81.3925 9.46813C81.2273 10.1625 81.1448 10.8747 81.1448 11.6045C81.1448 12.3185 81.2368 13.0148 81.4209 13.693C81.6062 14.3753 81.8942 14.9867 82.2859 15.5253L82.2868 15.5265L82.2878 15.5278C82.6817 16.0506 83.1782 16.4791 83.7749 16.8133L83.7769 16.8144L83.7789 16.8155C84.3865 17.1368 85.1012 17.2936 85.9162 17.2936C86.6796 17.2936 87.3587 17.1359 87.9478 16.8143L87.9499 16.8132L87.9519 16.812C88.5303 16.4776 89.0169 16.0494 89.4098 15.5278L89.4108 15.5265L89.4117 15.5253C89.803 14.9873 90.0908 14.3767 90.276 13.6953C90.4785 13.0165 90.5797 12.3194 90.5797 11.6045C90.5797 10.9097 90.497 10.2154 90.332 9.5218C90.1656 8.82241 89.897 8.18521 89.5253 7.61162C89.1501 7.03273 88.6618 6.56534 88.0624 6.21079C87.4695 5.84935 86.7509 5.67389 85.9162 5.67389Z" fill="white"/>
<path fill-rule="evenodd" clip-rule="evenodd" d="M107.874 4.88857C108.521 4.7164 109.241 4.62935 110.037 4.62935C110.636 4.62935 111.234 4.69 111.834 4.81149L111.836 4.81201L111.839 4.81247C112.427 4.91457 112.95 5.11806 113.413 5.42162C113.868 5.72039 114.243 6.14607 114.536 6.70595L114.537 6.70807C114.823 7.23801 114.973 7.94777 114.973 8.85001V16.1277C114.973 16.4924 115.064 16.8007 115.277 17.0168C115.492 17.2335 115.798 17.3254 116.161 17.3254C116.282 17.3254 116.399 17.3134 116.511 17.289V18.2796C116.377 18.3014 116.254 18.3184 116.14 18.3308L116.138 18.3311C116.005 18.3475 115.824 18.3563 115.594 18.3563C115.18 18.3563 114.858 18.3055 114.619 18.2129C114.397 18.1025 114.228 17.9563 114.106 17.7754C113.979 17.5881 113.889 17.3668 113.839 17.1082C113.805 16.8174 113.787 16.4995 113.787 16.1542V15.9658C113.486 16.4023 113.12 16.8047 112.597 17.2335C112.211 17.5499 111.831 17.8162 111.452 18.0367L111.451 18.0377L111.449 18.0387C111.09 18.2573 110.668 18.4276 110.18 18.5477L110.179 18.5481C109.713 18.667 109.145 18.7281 108.472 18.7281C107.841 18.7281 107.246 18.6504 106.689 18.496L106.687 18.4954L106.685 18.4949C106.151 18.3593 105.68 18.14 105.27 17.8382C104.881 17.5205 104.566 17.1275 104.327 16.6571C104.107 16.1737 103.995 15.6004 103.995 14.9324C103.995 14.0024 104.205 13.3063 104.6 12.8198L104.601 12.8187L104.602 12.8175C105.011 12.2967 105.55 11.8998 106.223 11.6279C106.925 11.3514 107.709 11.1602 108.576 11.0557L108.578 11.0555L108.579 11.0553C109.477 10.9316 110.383 10.8167 111.298 10.7107C111.661 10.6749 111.982 10.6299 112.259 10.5754C112.548 10.5185 112.798 10.4218 113.004 10.2799L113.009 10.2764L113.014 10.2727C113.221 10.1098 113.374 9.89741 113.475 9.64117C113.597 9.37815 113.652 9.04896 113.652 8.66409C113.652 8.07992 113.551 7.58653 113.334 7.19619C113.14 6.79624 112.857 6.47868 112.486 6.2478C112.138 6.01963 111.727 5.87042 111.258 5.79603C110.813 5.70516 110.334 5.66022 109.821 5.66022C108.712 5.66022 107.788 5.92422 107.065 6.46757C106.36 6.97922 105.987 7.78538 105.918 8.84751H104.604C104.67 8.15544 104.831 7.55642 105.081 7.04714C105.357 6.48755 105.725 6.03312 106.185 5.68025C106.668 5.32438 107.23 5.05995 107.874 4.88857ZM113.652 10.8661C113.577 11.0016 113.014 11.218 112.736 11.2986C112.435 11.3856 112.174 11.4453 111.951 11.4792L111.949 11.4795L111.947 11.4798C111.23 11.6032 110.487 11.7179 109.716 11.8238C108.952 11.9135 108.248 12.0573 107.607 12.2558C106.956 12.4572 106.409 12.7526 105.972 13.1458C105.526 13.5448 105.316 14.1154 105.316 14.8262C105.316 15.2754 105.401 15.6845 105.577 16.0497L105.58 16.0552L105.583 16.0606C105.774 16.399 106.022 16.6991 106.325 16.9607L106.328 16.963L106.33 16.9651C106.637 17.2105 106.99 17.3979 107.388 17.5284C107.785 17.6586 108.191 17.7238 108.607 17.7238C109.274 17.7238 109.915 17.6234 110.528 17.4222C111.142 17.2205 111.677 16.926 112.129 16.5369C112.599 16.1481 112.965 15.6756 113.229 15.1213C113.513 14.5611 113.652 13.9301 113.652 13.2325V10.8661Z" fill="white"/>
<path d="M76.8753 18.5001V4.79536H78.1948V18.5001H76.8753Z" fill="white"/>
<path d="M93.8552 18.5001V4.79536H95.1747V18.5001H93.8552Z" fill="white"/>
</svg>
