<svg width="38" height="37" viewBox="0 0 38 37" fill="none" xmlns="http://www.w3.org/2000/svg">
<g filter="url(#filter0_d_1174_12633)">
<path d="M18.4303 5L18.5225 5.47718C19.5394 10.7407 20.0479 13.3725 21.7917 15.1533C21.8928 15.2565 21.9966 15.3571 22.1029 15.4549C23.9375 17.1421 26.5839 17.5679 31.8767 18.4194C26.5701 19.2819 23.9168 19.7132 22.082 21.4124C21.9873 21.5001 21.8947 21.59 21.8042 21.682C20.0507 23.465 19.54 26.1041 18.5186 31.3825L18.4303 31.8388L18.3382 31.3635C17.3184 26.1004 16.8085 23.4688 15.0625 21.6886C14.967 21.5912 14.869 21.4962 14.7688 21.4036C12.9371 19.7117 10.2914 19.2809 5.00005 18.4194C10.2776 17.5689 12.9164 17.1436 14.7479 15.4636C14.8598 15.361 14.9688 15.2553 15.0749 15.1467C16.8114 13.3687 17.319 10.7445 18.3343 5.49616L18.4303 5Z" fill="#38B6FF"/>
</g>
<mask id="mask0_1174_12633" style="mask-type:alpha" maskUnits="userSpaceOnUse" x="5" y="5" width="27" height="27">
<path d="M18.4303 5L18.5225 5.47718C19.5394 10.7407 20.0479 13.3725 21.7917 15.1533C21.8928 15.2565 21.9966 15.3571 22.1029 15.4549C23.9375 17.1421 26.5839 17.5679 31.8767 18.4194C26.5701 19.2819 23.9168 19.7132 22.082 21.4124C21.9873 21.5001 21.8947 21.59 21.8042 21.682C20.0507 23.465 19.54 26.1041 18.5186 31.3825L18.4303 31.8388L18.3382 31.3635C17.3184 26.1004 16.8085 23.4688 15.0625 21.6886C14.967 21.5912 14.869 21.4962 14.7688 21.4036C12.9371 19.7117 10.2914 19.2809 5.00005 18.4194C10.2776 17.5689 12.9164 17.1436 14.7479 15.4636C14.8598 15.361 14.9688 15.2553 15.0749 15.1467C16.8114 13.3687 17.319 10.7445 18.3343 5.49616L18.4303 5Z" fill="#38B6FF"/>
</mask>
<g mask="url(#mask0_1174_12633)">
<g filter="url(#filter1_f_1174_12633)">
<path d="M22.7074 17.8482L34.2492 19.1637L17.7322 4.52832L19.0302 14.2415C19.2845 16.1444 20.8 17.6308 22.7074 17.8482Z" fill="#E1F2FF"/>
</g>
<g filter="url(#filter2_f_1174_12633)">
<path d="M14.6563 19.0749L6.98786 17.5513C5.03412 17.1632 3.08165 18.2258 2.3465 20.0773L12.4658 24.0482L17.9781 34.482L19.2219 35.5791L17.7697 22.4676C17.5826 20.7787 16.3229 19.406 14.6563 19.0749Z" fill="#1968C5"/>
</g>
</g>
<defs>
<filter id="filter0_d_1174_12633" x="0.981979" y="0.544926" width="36.1511" height="36.1132" filterUnits="userSpaceOnUse" color-interpolation-filters="sRGB">
<feFlood flood-opacity="0" result="BackgroundImageFix"/>
<feColorMatrix in="SourceAlpha" type="matrix" values="0 0 0 0 0 0 0 0 0 0 0 0 0 0 0 0 0 0 127 0" result="hardAlpha"/>
<feOffset dx="0.619159" dy="0.182106"/>
<feGaussianBlur stdDeviation="2.31859"/>
<feComposite in2="hardAlpha" operator="out"/>
<feColorMatrix type="matrix" values="0 0 0 0 0.109804 0 0 0 0 0.572549 0 0 0 0 1 0 0 0 0.72 0"/>
<feBlend mode="normal" in2="BackgroundImageFix" result="effect1_dropShadow_1174_12633"/>
<feBlend mode="normal" in="SourceGraphic" in2="effect1_dropShadow_1174_12633" result="shape"/>
</filter>
<filter id="filter1_f_1174_12633" x="11.6936" y="-1.5103" width="28.5943" height="26.713" filterUnits="userSpaceOnUse" color-interpolation-filters="sRGB">
<feFlood flood-opacity="0" result="BackgroundImageFix"/>
<feBlend mode="normal" in="SourceGraphic" in2="BackgroundImageFix" result="shape"/>
<feGaussianBlur stdDeviation="3.01931" result="effect1_foregroundBlur_1174_12633"/>
</filter>
<filter id="filter2_f_1174_12633" x="-4.88378" y="10.2415" width="31.3359" height="32.5679" filterUnits="userSpaceOnUse" color-interpolation-filters="sRGB">
<feFlood flood-opacity="0" result="BackgroundImageFix"/>
<feBlend mode="normal" in="SourceGraphic" in2="BackgroundImageFix" result="shape"/>
<feGaussianBlur stdDeviation="3.61511" result="effect1_foregroundBlur_1174_12633"/>
</filter>
</defs>
</svg>
