<svg width="25" height="24" viewBox="0 0 25 24" fill="none" xmlns="http://www.w3.org/2000/svg">
<path fill-rule="evenodd" clip-rule="evenodd" d="M3.8749 10.6489C9.24359 8.30986 12.8236 6.76781 14.6148 6.02277C19.7292 3.89553 20.7919 3.526 21.4846 3.5138C21.6369 3.51112 21.9776 3.54887 22.1982 3.72791C22.3845 3.87909 22.4358 4.08331 22.4603 4.22665C22.4848 4.36998 22.5154 4.6965 22.4911 4.95163C22.214 7.86367 21.0147 14.9304 20.4046 18.1919C20.1465 19.572 19.6382 20.0347 19.1461 20.08C18.0766 20.1784 17.2645 19.3732 16.2287 18.6942C14.6078 17.6318 13.6921 16.9703 12.1188 15.9335C10.3005 14.7353 11.4792 14.0768 12.5154 13.0005C12.7866 12.7189 17.4987 8.43287 17.5899 8.04406C17.6013 7.99544 17.6119 7.81418 17.5042 7.71847C17.3965 7.62276 17.2376 7.65549 17.1229 7.68152C16.9604 7.71841 14.371 9.42988 9.35486 12.8159C8.61988 13.3206 7.95416 13.5665 7.3577 13.5536C6.70015 13.5394 5.43528 13.1818 4.49498 12.8762C3.34166 12.5013 2.42503 12.3031 2.50485 11.6664C2.54642 11.3347 3.0031 10.9956 3.8749 10.6489Z" fill="white"/>
</svg>
