<svg width="24" height="24" viewBox="0 0 24 24" fill="none" xmlns="http://www.w3.org/2000/svg">
<path d="M12.8627 1.64307C7.275 1.64307 2.72676 6.17932 2.72439 11.7548C2.7238 13.537 3.19077 15.2767 4.0779 16.81L2.63965 22.0509L8.01398 20.6446C9.4949 21.4503 11.1619 21.8747 12.8585 21.8753H12.8627C18.4498 21.8753 22.998 17.3385 23.0004 11.763C23.0016 9.06103 21.9479 6.5204 20.0338 4.60931C18.1197 2.69762 15.5744 1.64425 12.8627 1.64307ZM12.8627 20.1676H12.8591C11.3474 20.1676 9.86409 19.7615 8.57044 18.996L8.26288 18.8139L5.07407 19.6486L5.92505 16.547L5.72475 16.2289C4.88147 14.8907 4.43583 13.3437 4.43643 11.7559C4.4382 7.12156 8.21843 3.3514 12.8662 3.3514C15.1169 3.35199 17.2325 4.22744 18.8231 5.81637C20.4142 7.40471 21.2895 9.51678 21.2889 11.7624C21.2871 16.3968 17.5069 20.1676 12.8627 20.1676ZM17.4844 13.8727C17.2314 13.7462 15.9857 13.135 15.7534 13.0505C15.5211 12.966 15.3522 12.924 15.1833 13.177C15.0144 13.43 14.5291 13.9992 14.3815 14.1677C14.234 14.3368 14.0858 14.3575 13.8328 14.231C13.5797 14.1045 12.7631 13.8373 11.796 12.9766C11.0428 12.3069 10.5343 11.4793 10.3868 11.2263C10.2392 10.9733 10.3708 10.8368 10.4982 10.7108C10.612 10.5979 10.7512 10.4159 10.878 10.2681C11.0049 10.1203 11.0469 10.0151 11.1311 9.84604C11.2152 9.67757 11.1732 9.52979 11.1097 9.40329C11.0463 9.27679 10.5397 8.03307 10.3287 7.52707C10.1231 7.03467 9.91447 7.10087 9.75861 7.09319C9.61105 7.08551 9.44216 7.08432 9.27327 7.08432C9.10437 7.08432 8.83 7.14757 8.5977 7.40057C8.3654 7.65357 7.71116 8.26479 7.71116 9.50851C7.71116 10.7522 8.61903 11.954 8.74526 12.1224C8.87207 12.2909 10.5314 14.8434 13.0725 15.9375C13.6769 16.1976 14.1486 16.3531 14.5166 16.4695C15.1235 16.6616 15.6758 16.6345 16.1119 16.5694C16.5985 16.4967 17.6106 15.9582 17.8216 15.3677C18.0326 14.7777 18.0326 14.2717 17.9692 14.1659C17.9057 14.0607 17.7369 13.9975 17.4838 13.871L17.4844 13.8727Z" fill="white"/>
</svg>
